<?xml version="1.0" encoding="UTF-8"?>
<svg
  xmlns="http://www.w3.org/2000/svg"
  viewBox="0 0 256 256"
>
  <style type="text/css"><![CDATA[
    :root {
      --icon-color: #222;
    }
    @media (prefers-color-scheme: dark) {
      :root {
        --icon-color: #eee;
      }
    }

    .overlay {
      fill: var(--icon-color);
      opacity: 0.2;
    }

    .stroke {
      fill: none;
      stroke: var(--icon-color);
      stroke-linecap: round;
      stroke-linejoin: round;
      stroke-width: 16;
    }
  ]]></style>

  <rect width="256" height="256" fill="none" />

  <path
    class="overlay"
    d="M184,120v61.65a8,8,0,0,1-2.34,5.65l-34.35,34.35a8,8,0,0,1-13.57-4.53L128,176Z"
  />
  <path
    class="overlay"
    d="M136,72H74.35a8,8,0,0,0-5.65,2.34L34.35,108.69a8,8,0,0,0,4.53,13.57L80,128Z"
  />
  <path
    class="overlay"
    d="M94.56,187.82C90.69,196.31,77.65,216,40,216c0-37.65,19.69-50.69,28.18-54.56Z"
  />

  <path
    class="stroke"
    d="M191.11,112.89c24-24,25.5-52.55,24.75-65.28a8,8,0,0,0-7.47-7.47c-12.73-.75-41.26.73-65.28,24.75L80,128l48,48Z"
  />
  <path
    class="stroke"
    d="M136,72H74.35a8,8,0,0,0-5.65,2.34L34.35,108.69a8,8,0,0,0,4.53,13.57L80,128"
  />
  <path
    class="stroke"
    d="M184,120v61.65a8,8,0,0,1-2.34,5.65l-34.35,34.35a8,8,0,0,1-13.57-4.53L128,176"
  />
  <path
    class="stroke"
    d="M94.56,187.82C90.69,196.31,77.65,216,40,216c0-37.65,19.69-50.69,28.18-54.56"
  />
</svg>